<mxfile host="app.diagrams.net" modified="2023-05-09T16:54:43.197Z" agent="Mozilla/5.0 (Windows NT 10.0; Win64; x64) AppleWebKit/537.36 (KHTML, like Gecko) Chrome/111.0.0.0 Safari/537.36 OPR/97.0.0.0" etag="-wVbMTVDt8brsC0dSP8C" version="21.2.9" type="github">
  <diagram name="Page-1" id="YnvxCsxEjS-r9alnPrE5">
    <mxGraphModel dx="1009" dy="550" grid="1" gridSize="10" guides="1" tooltips="1" connect="1" arrows="1" fold="1" page="1" pageScale="1" pageWidth="1169" pageHeight="827" math="0" shadow="0">
      <root>
        <mxCell id="0" />
        <mxCell id="1" parent="0" />
        <mxCell id="tst-QI5zi-VoJXwsDzl8-3" value="Department" style="whiteSpace=wrap;html=1;align=center;" vertex="1" parent="1">
          <mxGeometry x="470" y="260" width="100" height="40" as="geometry" />
        </mxCell>
        <mxCell id="tst-QI5zi-VoJXwsDzl8-4" value="Num_employees" style="ellipse;whiteSpace=wrap;html=1;align=center;" vertex="1" parent="1">
          <mxGeometry x="360" y="150" width="100" height="40" as="geometry" />
        </mxCell>
        <mxCell id="tst-QI5zi-VoJXwsDzl8-5" value="&lt;u&gt;branch_name&lt;/u&gt;" style="ellipse;whiteSpace=wrap;html=1;align=center;" vertex="1" parent="1">
          <mxGeometry x="485" y="370" width="100" height="40" as="geometry" />
        </mxCell>
        <mxCell id="tst-QI5zi-VoJXwsDzl8-6" value="&lt;u&gt;dep_name&lt;/u&gt;" style="ellipse;whiteSpace=wrap;html=1;align=center;" vertex="1" parent="1">
          <mxGeometry x="350" y="360" width="100" height="40" as="geometry" />
        </mxCell>
        <mxCell id="tst-QI5zi-VoJXwsDzl8-7" value="&amp;lt;works" style="shape=rhombus;perimeter=rhombusPerimeter;whiteSpace=wrap;html=1;align=center;" vertex="1" parent="1">
          <mxGeometry x="680" y="250" width="120" height="60" as="geometry" />
        </mxCell>
        <mxCell id="tst-QI5zi-VoJXwsDzl8-8" value="since" style="ellipse;whiteSpace=wrap;html=1;align=center;" vertex="1" parent="1">
          <mxGeometry x="690" y="340" width="100" height="40" as="geometry" />
        </mxCell>
        <mxCell id="tst-QI5zi-VoJXwsDzl8-9" value="Employee" style="whiteSpace=wrap;html=1;align=center;" vertex="1" parent="1">
          <mxGeometry x="880" y="260" width="100" height="40" as="geometry" />
        </mxCell>
        <mxCell id="tst-QI5zi-VoJXwsDzl8-10" value="&lt;u&gt;ID&lt;/u&gt;" style="ellipse;whiteSpace=wrap;html=1;align=center;" vertex="1" parent="1">
          <mxGeometry x="790" y="170" width="100" height="40" as="geometry" />
        </mxCell>
        <mxCell id="tst-QI5zi-VoJXwsDzl8-11" value="&lt;u&gt;Name&lt;/u&gt;" style="ellipse;whiteSpace=wrap;html=1;align=center;" vertex="1" parent="1">
          <mxGeometry x="940" y="170" width="100" height="40" as="geometry" />
        </mxCell>
        <mxCell id="tst-QI5zi-VoJXwsDzl8-12" value="" style="endArrow=none;html=1;rounded=0;exitX=0.6;exitY=1;exitDx=0;exitDy=0;exitPerimeter=0;entryX=0.5;entryY=0;entryDx=0;entryDy=0;" edge="1" parent="1" source="tst-QI5zi-VoJXwsDzl8-4" target="tst-QI5zi-VoJXwsDzl8-3">
          <mxGeometry relative="1" as="geometry">
            <mxPoint x="440" y="290" as="sourcePoint" />
            <mxPoint x="600" y="290" as="targetPoint" />
          </mxGeometry>
        </mxCell>
        <mxCell id="tst-QI5zi-VoJXwsDzl8-14" value="" style="endArrow=none;html=1;rounded=0;entryX=0.5;entryY=0;entryDx=0;entryDy=0;exitX=0.608;exitY=1;exitDx=0;exitDy=0;exitPerimeter=0;" edge="1" parent="1" source="tst-QI5zi-VoJXwsDzl8-10" target="tst-QI5zi-VoJXwsDzl8-9">
          <mxGeometry width="50" height="50" relative="1" as="geometry">
            <mxPoint x="490" y="310" as="sourcePoint" />
            <mxPoint x="540" y="260" as="targetPoint" />
          </mxGeometry>
        </mxCell>
        <mxCell id="tst-QI5zi-VoJXwsDzl8-15" value="" style="endArrow=none;html=1;rounded=0;entryX=0.5;entryY=1;entryDx=0;entryDy=0;exitX=0.5;exitY=0;exitDx=0;exitDy=0;" edge="1" parent="1" source="tst-QI5zi-VoJXwsDzl8-9" target="tst-QI5zi-VoJXwsDzl8-11">
          <mxGeometry width="50" height="50" relative="1" as="geometry">
            <mxPoint x="930" y="270" as="sourcePoint" />
            <mxPoint x="540" y="260" as="targetPoint" />
          </mxGeometry>
        </mxCell>
        <mxCell id="tst-QI5zi-VoJXwsDzl8-17" value="" style="endArrow=none;html=1;rounded=0;exitX=0.5;exitY=1;exitDx=0;exitDy=0;entryX=0.5;entryY=0;entryDx=0;entryDy=0;" edge="1" parent="1" source="tst-QI5zi-VoJXwsDzl8-3" target="tst-QI5zi-VoJXwsDzl8-6">
          <mxGeometry width="50" height="50" relative="1" as="geometry">
            <mxPoint x="490" y="310" as="sourcePoint" />
            <mxPoint x="540" y="260" as="targetPoint" />
          </mxGeometry>
        </mxCell>
        <mxCell id="tst-QI5zi-VoJXwsDzl8-18" value="" style="endArrow=none;html=1;rounded=0;entryX=0.5;entryY=0;entryDx=0;entryDy=0;exitX=0.5;exitY=1;exitDx=0;exitDy=0;" edge="1" parent="1" source="tst-QI5zi-VoJXwsDzl8-3" target="tst-QI5zi-VoJXwsDzl8-5">
          <mxGeometry width="50" height="50" relative="1" as="geometry">
            <mxPoint x="490" y="310" as="sourcePoint" />
            <mxPoint x="540" y="260" as="targetPoint" />
          </mxGeometry>
        </mxCell>
        <mxCell id="tst-QI5zi-VoJXwsDzl8-19" value="" style="endArrow=none;html=1;rounded=0;entryX=0;entryY=0.5;entryDx=0;entryDy=0;exitX=1;exitY=0.5;exitDx=0;exitDy=0;" edge="1" parent="1" source="tst-QI5zi-VoJXwsDzl8-3" target="tst-QI5zi-VoJXwsDzl8-7">
          <mxGeometry width="50" height="50" relative="1" as="geometry">
            <mxPoint x="580" y="280" as="sourcePoint" />
            <mxPoint x="540" y="260" as="targetPoint" />
          </mxGeometry>
        </mxCell>
        <mxCell id="tst-QI5zi-VoJXwsDzl8-20" value="" style="endArrow=block;html=1;rounded=0;entryX=1;entryY=0.5;entryDx=0;entryDy=0;exitX=0;exitY=0.5;exitDx=0;exitDy=0;shape=flexArrow;startArrow=none;startFill=0;" edge="1" parent="1" source="tst-QI5zi-VoJXwsDzl8-9" target="tst-QI5zi-VoJXwsDzl8-7">
          <mxGeometry width="50" height="50" relative="1" as="geometry">
            <mxPoint x="490" y="310" as="sourcePoint" />
            <mxPoint x="540" y="260" as="targetPoint" />
          </mxGeometry>
        </mxCell>
        <mxCell id="tst-QI5zi-VoJXwsDzl8-21" value="" style="endArrow=none;html=1;rounded=0;entryX=0.5;entryY=1;entryDx=0;entryDy=0;exitX=0.5;exitY=0;exitDx=0;exitDy=0;" edge="1" parent="1" source="tst-QI5zi-VoJXwsDzl8-8" target="tst-QI5zi-VoJXwsDzl8-7">
          <mxGeometry width="50" height="50" relative="1" as="geometry">
            <mxPoint x="490" y="310" as="sourcePoint" />
            <mxPoint x="540" y="260" as="targetPoint" />
          </mxGeometry>
        </mxCell>
        <mxCell id="tst-QI5zi-VoJXwsDzl8-22" value="" style="endArrow=none;html=1;rounded=0;entryX=0.5;entryY=1;entryDx=0;entryDy=0;" edge="1" parent="1" target="tst-QI5zi-VoJXwsDzl8-9">
          <mxGeometry width="50" height="50" relative="1" as="geometry">
            <mxPoint x="930" y="340" as="sourcePoint" />
            <mxPoint x="540" y="260" as="targetPoint" />
          </mxGeometry>
        </mxCell>
        <mxCell id="tst-QI5zi-VoJXwsDzl8-23" value="" style="triangle;whiteSpace=wrap;html=1;direction=north;" vertex="1" parent="1">
          <mxGeometry x="915" y="340" width="30" height="30" as="geometry" />
        </mxCell>
        <mxCell id="tst-QI5zi-VoJXwsDzl8-24" value="" style="endArrow=none;html=1;rounded=0;entryX=0;entryY=0.5;entryDx=0;entryDy=0;" edge="1" parent="1" target="tst-QI5zi-VoJXwsDzl8-23">
          <mxGeometry width="50" height="50" relative="1" as="geometry">
            <mxPoint x="880" y="440" as="sourcePoint" />
            <mxPoint x="970" y="400" as="targetPoint" />
            <Array as="points">
              <mxPoint x="880" y="400" />
              <mxPoint x="930" y="400" />
            </Array>
          </mxGeometry>
        </mxCell>
        <mxCell id="tst-QI5zi-VoJXwsDzl8-25" value="" style="endArrow=none;html=1;rounded=0;entryX=0;entryY=0.5;entryDx=0;entryDy=0;" edge="1" parent="1" target="tst-QI5zi-VoJXwsDzl8-23">
          <mxGeometry width="50" height="50" relative="1" as="geometry">
            <mxPoint x="980" y="440" as="sourcePoint" />
            <mxPoint x="990" y="380" as="targetPoint" />
            <Array as="points">
              <mxPoint x="980" y="400" />
              <mxPoint x="930" y="400" />
            </Array>
          </mxGeometry>
        </mxCell>
        <mxCell id="tst-QI5zi-VoJXwsDzl8-26" value="Contracted" style="whiteSpace=wrap;html=1;align=center;" vertex="1" parent="1">
          <mxGeometry x="940" y="440" width="100" height="40" as="geometry" />
        </mxCell>
        <mxCell id="tst-QI5zi-VoJXwsDzl8-27" value="Freelancer" style="whiteSpace=wrap;html=1;align=center;" vertex="1" parent="1">
          <mxGeometry x="830" y="440" width="100" height="40" as="geometry" />
        </mxCell>
      </root>
    </mxGraphModel>
  </diagram>
</mxfile>
